<svg width="32" height="32" viewBox="0 0 8.467 8.467" xmlns="http://www.w3.org/2000/svg"><defs><radialGradient id="a" cx="43.126" cy="208.26" r="76.177" gradientTransform="matrix(.09031 0 0 .08901 223.76 204.63)" gradientUnits="userSpaceOnUse"><stop stop-color="#fff" offset="0"/><stop stop-color="#106a90" offset="1"/></radialGradient></defs><g transform="translate(-224.58 -219.56)"><circle cx="228.82" cy="223.8" r="4.233" fill="#fff"/><circle cx="228.82" cy="223.8" r="4.233" fill="url(#a)" opacity=".769"/><path d="M226.4 221.09a.113.113 0 0 0-.061.026c-.02.015-.083.07-.141.121-.145.13-.167.144-.204.124-.025-.013-.035-.012-.071.01a.876.876 0 0 0-.197.207.822.822 0 0 0-.085.2.976.976 0 0 1-.072.146c-.028.046-.081.145-.12.22a.698.698 0 0 0-.091.299 2.13 2.13 0 0 1-.05.25c-.03.097-.027.14.012.183a.121.121 0 0 1 .027.05c.004.02.02.026.105.038.107.015.14.028.19.073.016.015.07.057.117.092a.536.536 0 0 1 .101.09.278.278 0 0 1 .016.098c0 .101.083.31.142.359.045.037.083.122.1.22.02.12.038.133.226.159.11.014.135.035.194.15.047.093.084.132.15.155.057.02.178.023.242.005.061-.017.086-.043.076-.08-.006-.027-.002-.033.032-.045a2.41 2.41 0 0 0 .15-.068.57.57 0 0 1 .147-.054c.06 0 .103-.023.173-.096a.73.73 0 0 1 .161-.12c.09-.048.093-.052.09-.092-.003-.04-.002-.04.03-.032.02.005.08.013.134.019.386.038.423.045.555.11.145.07.227.129.243.17.011.03.062.058.126.072.022.005.045.024.064.055.034.053.042.057.143.069.037.004.113.015.167.025.054.009.172.023.262.03l.162.016.064-.035c.105-.057.15-.103.154-.158.006-.08.113-.17.22-.187a.113.113 0 0 0 .07-.038c.027-.035.063-.213.063-.311 0-.056.004-.068.031-.085.021-.014.034-.036.04-.069.003-.026.016-.053.027-.059.01-.006.14-.007.287-.003.238.007.271.01.294.031.023.02.04.023.159.017a.642.642 0 0 0 .179-.026c.065-.028.1-.025.145.013.033.027.054.033.128.037a.44.44 0 0 1 .13.025c.053.027.092.01.125-.056.029-.056.132-.15.166-.15a.34.34 0 0 1 .094.04c.07.039.073.039.114.02.023-.011.085-.055.138-.097.099-.078.144-.147.144-.219 0-.03-.007-.036-.208-.156-.057-.034-.07-.048-.087-.102a.498.498 0 0 0-.143-.21c-.046-.035-.065-.039-.13-.026-.04.008-.05.003-.112-.048a.274.274 0 0 0-.24-.074c-.07.008-.078.006-.126-.029a.64.64 0 0 1-.097-.094c-.05-.062-.08-.07-.13-.036-.052.035-.191.168-.205.195-.01.021-.029.027-.117.035a4.194 4.194 0 0 0-.198.023 1.63 1.63 0 0 1-.12.013c-.048 0-.205-.082-.274-.143-.08-.072-.105-.082-.205-.082a.484.484 0 0 1-.132-.02c-.065-.023-.15-.024-.312-.005-.114.013-.125.013-.182-.012a.972.972 0 0 0-.26-.05.342.342 0 0 1-.093-.05c-.082-.055-.11-.06-.183-.025a.448.448 0 0 1-.186.028l-.136.004-.001-.043c-.002-.078-.015-.107-.06-.128a.225.225 0 0 0-.079-.02c-.027 0-.047-.012-.07-.04-.03-.036-.032-.045-.025-.11l.008-.072-.078-.036a.557.557 0 0 0-.153-.043.663.663 0 0 1-.128-.027c-.102-.036-.212-.02-.212.031 0 .02-.008.024-.045.024a.499.499 0 0 0-.144.045c-.115.052-.165.056-.248.02l-.06-.027.024-.034c.041-.06.042-.076.007-.099-.04-.026-.314-.038-.393-.017-.163.042-.398.1-.411.1-.008 0-.016-.008-.016-.018 0-.034-.047-.068-.092-.068-.05 0-.054-.012-.02-.043a.18.18 0 0 0 .039-.067.89.89 0 0 1 .063-.13l.05-.084-.027-.029c-.021-.022-.025-.037-.018-.071.01-.06-.013-.096-.052-.095zm3.094 4.107c-.037 0-.076.001-.114.004-.14.01-.098-.02-.374.277-.192.209-.24.24-.303.194-.02-.014-.024-.043-.03-.238l-.009-.221-.122-.01a1.123 1.123 0 0 0-.185 0l-.064.01-.004.086c-.005.099.015.46.042.76.023.268.028.295.053.301.031.008.24.01.27.001.025-.007.027-.016.036-.216l.009-.209h.167l.14.158c.078.086.163.184.19.216l.046.059h.169c.185 0 .21-.006.188-.048a6.387 6.387 0 0 0-.312-.395.6.6 0 0 1-.097-.138c0-.012.112-.138.253-.284.14-.143.254-.268.254-.278 0-.017-.092-.029-.203-.029zm-2.126.001a.735.735 0 0 0-.082.005l-.08.01-.004.059c-.005.075.019.218.098.58.035.16.06.3.056.312-.007.017-.035.02-.228.02a2.63 2.63 0 0 1-.246-.007c-.017-.005-.036-.029-.052-.065a6.725 6.725 0 0 1-.193-.66 3.438 3.438 0 0 0-.062-.232.444.444 0 0 0-.153-.013h-.145l.009.084c.02.181.206.742.325.978.052.105.035.1.428.1.16 0 .36.005.443.009l.15.008.026.087a.66.66 0 0 0 .043.116c.017.026.027.028.141.028h.124v-.053c0-.083-.049-.36-.066-.37a.238.238 0 0 0-.078-.01c-.085 0-.1-.007-.115-.054-.02-.06-.07-.344-.112-.633a6.856 6.856 0 0 0-.043-.274c-.005-.014-.097-.025-.184-.024zm3.857.003a.88.88 0 0 0-.075.004c-.084.01-.043-.034-.314.334-.122.167-.151.195-.166.16l-.069-.167a4.535 4.535 0 0 0-.106-.238l-.044-.087h-.18c-.214 0-.216.001-.148.122.138.245.316.65.316.716 0 .073-.107.15-.206.151-.051 0-.087.023-.101.063-.016.046-.019.102-.005.116.005.005.06.007.121.004.242-.012.343-.1.822-.708.227-.288.309-.405.309-.44 0-.016-.016-.022-.078-.027a.613.613 0 0 0-.076-.002z" fill="#106a90"/></g></svg>