<svg width="12" height="12" xmlns="http://www.w3.org/2000/svg"><g stroke="#000" stroke-width="20"><g stroke-width="10" stroke-linejoin="round"><path d="M6 .543a.2.2 0 0 0-.09.02L.11 3.465a.2.2 0 0 0 0 .356l.178.09 5.623 2.81a.2.2 0 0 0 .178 0l5.8-2.9a.2.2 0 0 0 0-.356l-5.8-2.9A.2.2 0 0 0 6 .542zm0 .644l4.91 2.455L6 6.097 1.09 3.642zM1.942 4.93a.2.2 0 0 0-.09.02L.11 5.823a.2.2 0 0 0 0 .356l.178.09 5.623 2.81a.2.2 0 0 0 .178 0l5.8-2.9a.2.2 0 0 0 0-.356l-1.742-.871a.2.2 0 0 0-.178 0l-.222.111a.2.2 0 0 0 0 .357L10.91 6 6 8.455 1.09 6l1.163-.582a.2.2 0 0 0 0-.356l-.222-.111a.2.2 0 0 0-.09-.021zm0 2.358a.2.2 0 0 0-.09.02L.11 8.18a.2.2 0 0 0 0 .356l.178.09 5.623 2.81a.2.2 0 0 0 .178 0l5.8-2.9a.2.2 0 0 0 0-.356l-1.742-.871a.2.2 0 0 0-.178 0l-.222.111a.2.2 0 0 0 0 .356l1.163.582L6 10.813 1.09 8.358l1.163-.582a.2.2 0 0 0 0-.356l-.222-.111a.2.2 0 0 0-.09-.021z" color="#000" fill-rule="evenodd" stroke="none"/></g></g></svg>