<svg width="12" height="12" version="1.1" xmlns="http://www.w3.org/2000/svg">
 <path d="m5.7456 9.7308c-0.12612-0.022175-0.30652-0.081384-0.41609-0.13656-0.21512-0.10833-0.15619-0.051808-2.6205-2.5133-1.3803-1.3787-2.3784-2.385-2.418-2.4378-0.12879-0.17179-0.22047-0.37755-0.2695-0.60489-0.02904-0.13464-0.028591-0.45299 8.2253e-4 -0.58337 0.044862-0.19886 0.11248-0.36262 0.21386-0.51791 0.21238-0.32533 0.51388-0.53957 0.90792-0.64513 0.10541-0.028239 0.14063-0.031527 0.34409-0.032121 0.19276-5.627e-4 0.24227 0.00327 0.33104 0.025653 0.2272 0.057274 0.41136 0.14294 0.5817 0.27058 0.040431 0.030295 0.86601 0.84677 1.8346 1.8144l1.7611 1.7593 1.7796-1.7777c1.912-1.9099 1.8489-1.8505 2.0824-1.9584 0.63831-0.29492 1.3932-0.11751 1.8151 0.42658 0.40386 0.5208 0.43473 1.187 0.081029 1.7487-0.057699 0.091637-0.32648 0.36503-2.4184 2.4598-1.4698 1.4718-2.3893 2.3837-2.449 2.4286-0.18014 0.13539-0.41172 0.23304-0.6503 0.27421-0.13271 0.022909-0.35926 0.022598-0.49152-6.537e-4z" style="fill:#000000;stroke-width:.012252"/>
</svg>
