<svg width="24" height="24" viewBox="0 0 24 24" xmlns="http://www.w3.org/2000/svg"><title>pin</title><path d="M7.414 10l.956.955a1 1 0 0 1-1.415 1.415L4.293 9.707C3.663 9.077 4.109 8 5 8h5.586L13 5.586V4a1 1 0 0 1 .293-.707l1-1a1 1 0 0 1 1.414 0l6 6a1 1 0 0 1 0 1.414l-1 1A1 1 0 0 1 20 11h-1.586L16 13.414V19c0 .89-1.077 1.337-1.707.707L10 15.414l-5.293 5.293a1 1 0 1 1-1.414-1.414l6-6a1 1 0 0 1 1.414 0L14 16.586V13a1 1 0 0 1 .293-.707l3-3A1 1 0 0 1 18 9h1.586l-5.293-5.293h1.414l-1 1L15 4v2a1 1 0 0 1-.293.707l-3 3A1 1 0 0 1 11 10H7.414z" fill="#000" fill-rule="nonzero"/></svg>