<?xml version="1.0" encoding="UTF-8" standalone="no"?>
<!-- Created with Inkscape (http://www.inkscape.org/) -->

<svg
   xmlns:dc="http://purl.org/dc/elements/1.1/"
   xmlns:cc="http://creativecommons.org/ns#"
   xmlns:rdf="http://www.w3.org/1999/02/22-rdf-syntax-ns#"
   xmlns:svg="http://www.w3.org/2000/svg"
   xmlns="http://www.w3.org/2000/svg"
   xmlns:sodipodi="http://sodipodi.sourceforge.net/DTD/sodipodi-0.dtd"
   xmlns:inkscape="http://www.inkscape.org/namespaces/inkscape"
   width="32"
   height="32"
   version="1.1"
   viewBox="0 0 8.4667 8.4667"
   id="svg19"
   sodipodi:docname="favicon.svg"
   inkscape:version="0.92.5 (2060ec1f9f, 2020-04-08)">
  <sodipodi:namedview
     pagecolor="#ffffff"
     bordercolor="#666666"
     borderopacity="1"
     objecttolerance="10"
     gridtolerance="10"
     guidetolerance="10"
     inkscape:pageopacity="0"
     inkscape:pageshadow="2"
     inkscape:window-width="1600"
     inkscape:window-height="849"
     id="namedview21"
     showgrid="false"
     inkscape:zoom="11.313708"
     inkscape:cx="16.267059"
     inkscape:cy="10.39811"
     inkscape:window-x="0"
     inkscape:window-y="0"
     inkscape:window-maximized="1"
     inkscape:current-layer="svg19" />
  <defs
     id="defs7">
    <radialGradient
       id="radialGradient898"
       cx="43.126"
       cy="208.26"
       r="76.177"
       gradientTransform="matrix(0.09031,0,0,0.089011,-0.82,-14.93)"
       gradientUnits="userSpaceOnUse">
      <stop
         stop-color="#fff"
         offset="0"
         id="stop2" />
      <stop
         stop-color="#106a90"
         offset="1"
         id="stop4" />
    </radialGradient>
  </defs>
  <metadata
     id="metadata9">
    <rdf:RDF>
      <cc:Work
         rdf:about="">
        <dc:format>image/svg+xml</dc:format>
        <dc:type
           rdf:resource="http://purl.org/dc/dcmitype/StillImage" />
        <dc:title></dc:title>
      </cc:Work>
    </rdf:RDF>
  </metadata>
  <circle
     id="circle11"
     style="fill:#ffffff;paint-order:normal"
     r="4.2333002"
     cy="4.2400031"
     cx="4.2400074" />
  <ellipse
     id="circle13"
     style="opacity:0.769;fill:#ffffff;fill-opacity:1;stroke:#106a90;stroke-width:0.2605007;stroke-miterlimit:4;stroke-dasharray:none;stroke-opacity:1;paint-order:normal"
     cy="4.2333503"
     cx="4.2333503"
     rx="4.1030998"
     ry="4.1030993" />
  <path
     inkscape:connector-curvature="0"
     id="path15"
     style="fill:#106a90;paint-order:normal;fill-opacity:1"
     d="M 1.82,1.53 C 1.8021,1.53066 1.7811,1.539 1.7586,1.5559 1.739,1.5708 1.6756,1.6254 1.61782,1.67746 1.4731,1.80768 1.45125,1.82096 1.41418,1.80112 c -0.0253,-0.0136 -0.0353,-0.0121 -0.0716,0.0103 -0.0524,0.0324 -0.15597,0.14087 -0.19686,0.20622 -0.0304,0.0486 -0.0417,0.0751 -0.085,0.19974 -0.0122,0.0352 -0.0447,0.10131 -0.0721,0.1468 -0.0274,0.0455 -0.0809,0.14465 -0.11886,0.22033 -0.064,0.12771 -0.0706,0.14911 -0.0919,0.29832 -0.0126,0.0884 -0.0352,0.2012 -0.0503,0.25065 -0.0294,0.0966 -0.0265,0.13996 0.012,0.18215 0.0124,0.0136 0.0246,0.0358 0.027,0.0495 0.004,0.0208 0.0202,0.0269 0.10496,0.039 0.1074,0.0153 0.14093,0.0281 0.18982,0.0725 0.017,0.0154 0.0699,0.0569 0.11746,0.0922 0.0476,0.0353 0.0933,0.0762 0.10157,0.091 0.008,0.0148 0.0152,0.0585 0.0155,0.0971 6.4e-4,0.10145 0.0833,0.31066 0.14178,0.35888 0.0451,0.0372 0.0838,0.12239 0.0998,0.22004 0.0197,0.12012 0.0388,0.13351 0.22693,0.15892 0.10887,0.0147 0.13505,0.035 0.1935,0.15023 0.0474,0.0935 0.0843,0.13154 0.15031,0.15507 0.0569,0.0203 0.17809,0.0228 0.24186,0.005 0.0613,-0.017 0.0858,-0.043 0.0763,-0.0809 -0.006,-0.0257 -0.002,-0.0322 0.0319,-0.044 0.0217,-0.008 0.0895,-0.0381 0.15059,-0.0678 0.0611,-0.0298 0.12708,-0.0541 0.14658,-0.0541 0.0604,0 0.1025,-0.0235 0.17305,-0.0965 0.0404,-0.0418 0.10569,-0.0907 0.16076,-0.12036 0.089,-0.0479 0.0926,-0.0516 0.0894,-0.0911 -0.003,-0.0394 -0.002,-0.0408 0.0309,-0.0323 0.0188,0.005 0.0788,0.0133 0.1332,0.0186 0.3867,0.038 0.42347,0.0453 0.55528,0.11011 0.14485,0.0712 0.2273,0.1289 0.24299,0.17015 0.0111,0.0292 0.0622,0.0583 0.12601,0.0718 0.0217,0.005 0.045,0.0246 0.0644,0.0554 0.0332,0.0526 0.042,0.0569 0.14267,0.0689 0.0374,0.004 0.11253,0.0155 0.16694,0.0246 0.0544,0.009 0.17216,0.0231 0.26165,0.0313 l 0.16271,0.0148 0.0635,-0.0346 c 0.10504,-0.0572 0.15017,-0.10328 0.15435,-0.15766 0.006,-0.08 0.11237,-0.17066 0.2197,-0.18755 0.0279,-0.004 0.0552,-0.0191 0.0698,-0.0377 0.0273,-0.0347 0.0637,-0.21286 0.0637,-0.31142 -2e-5,-0.0554 0.004,-0.0675 0.0309,-0.0849 0.0209,-0.0137 0.0335,-0.0361 0.0388,-0.0687 0.004,-0.0266 0.0167,-0.0532 0.0277,-0.059 0.011,-0.006 0.14043,-0.007 0.28764,-0.003 0.23789,0.007 0.27054,0.0105 0.29336,0.0312 0.0228,0.0206 0.0406,0.0225 0.15892,0.017 0.0832,-0.004 0.15055,-0.0138 0.17926,-0.0263 0.0646,-0.0282 0.10072,-0.0251 0.14545,0.0125 0.0322,0.0271 0.0539,0.0335 0.12771,0.0376 0.0489,0.003 0.10702,0.014 0.12914,0.025 0.0532,0.0264 0.0926,0.009 0.12579,-0.0564 0.0285,-0.0559 0.13235,-0.14998 0.16564,-0.1501 0.0124,-5e-5 0.055,0.0179 0.0946,0.0399 0.0705,0.0391 0.073,0.0395 0.11395,0.02 0.023,-0.011 0.0851,-0.0543 0.13796,-0.0964 0.0984,-0.0782 0.14411,-0.14754 0.14411,-0.21865 0,-0.0311 -0.007,-0.0361 -0.20844,-0.15672 -0.057,-0.0341 -0.0691,-0.0482 -0.0868,-0.1014 C 7.51662,3.13957 7.45432,3.048 7.39908,3.00584 7.35348,2.97104 7.33428,2.96724 7.26855,2.98014 c -0.0389,0.008 -0.0502,0.003 -0.11128,-0.0479 -0.0815,-0.0676 -0.13776,-0.085 -0.23939,-0.0743 -0.0709,0.008 -0.0793,0.006 -0.12659,-0.0288 -0.0279,-0.0203 -0.0717,-0.0625 -0.0973,-0.0938 -0.0508,-0.062 -0.0805,-0.0702 -0.13058,-0.0361 -0.0513,0.0349 -0.19051,0.16794 -0.20399,0.19493 -0.0106,0.0213 -0.0294,0.0269 -0.11748,0.0347 -0.0576,0.005 -0.14652,0.0154 -0.19752,0.0228 -0.051,0.007 -0.10534,0.0135 -0.12073,0.0136 -0.0473,2.8e-4 -0.20485,-0.0824 -0.27391,-0.1437 -0.0804,-0.0714 -0.10528,-0.0813 -0.20433,-0.0813 -0.0429,0 -0.10237,-0.009 -0.13213,-0.0195 C 5.24812,2.69737 5.16384,2.69587 5.00139,2.71477 4.88697,2.72847 4.87587,2.72777 4.819,2.70327 4.7678,2.68127 4.63021,2.65487 4.55916,2.65357 4.54816,2.65336 4.50646,2.63097 4.46646,2.60377 4.38436,2.54797 4.35505,2.54387 4.28321,2.57837 c -0.0383,0.0184 -0.0826,0.025 -0.18629,0.0278 l -0.13604,0.004 -9.4e-4,-0.0433 c -0.002,-0.0783 -0.0152,-0.10734 -0.0595,-0.12836 -0.0232,-0.011 -0.0589,-0.02 -0.0794,-0.02 -0.0266,0 -0.0466,-0.0112 -0.0702,-0.0392 -0.0302,-0.0359 -0.0323,-0.0451 -0.0247,-0.11054 l 0.008,-0.0713 -0.0784,-0.0362 C 3.61134,2.14077 3.54513,2.12187 3.50302,2.11777 3.46212,2.11377 3.40442,2.10187 3.3747,2.09137 3.27296,2.05547 3.16308,2.07147 3.16308,2.12217 c 0,0.0197 -0.008,0.0243 -0.0448,0.0243 -0.025,0 -0.0888,0.0199 -0.14439,0.045 -0.11461,0.0517 -0.16515,0.0556 -0.2483,0.0188 l -0.0591,-0.0262 0.0237,-0.0343 c 0.0411,-0.0593 0.0422,-0.0756 0.007,-0.0987 -0.0395,-0.0259 -0.31463,-0.038 -0.39335,-0.0174 -0.1629,0.0427 -0.39797,0.10004 -0.41115,0.10023 -0.008,1.1e-4 -0.0154,-0.008 -0.0154,-0.0183 0,-0.0334 -0.0471,-0.068 -0.0927,-0.068 -0.0491,0 -0.054,-0.0111 -0.019,-0.0429 0.0133,-0.0121 0.0306,-0.0421 0.0384,-0.0668 0.008,-0.0247 0.0363,-0.0829 0.0635,-0.1294 L 1.91689,1.724 1.89019,1.6955 C 1.86889,1.6728 1.86509,1.6582 1.87159,1.6236 1.88289,1.5632 1.85919,1.5278 1.81999,1.5292 Z m 3.0942,4.1073 c -0.037,0 -0.0761,0.001 -0.1147,0.004 C 4.65937,5.6515 4.7015,5.6202 4.42628,5.91848 4.23422,6.12665 4.18515,6.15798 4.12256,6.11221 4.10276,6.09771 4.09906,6.06901 4.09236,5.87417 l -0.008,-0.22153 -0.12211,-0.01 c -0.0672,-0.005 -0.15064,-0.005 -0.18548,5e-5 l -0.0634,0.0101 -0.004,0.0865 c -0.005,0.0986 0.015,0.4596 0.0415,0.76039 0.0236,0.26781 0.0282,0.29419 0.0532,0.30079 0.0314,0.008 0.23962,0.009 0.26989,8.4e-4 0.0255,-0.007 0.0271,-0.0163 0.0356,-0.21622 l 0.009,-0.20907 h 0.1674 l 0.14095,0.15767 c 0.0775,0.0867 0.1622,0.18408 0.18819,0.21638 l 0.0473,0.0587 0.16851,-2e-4 C 5.01594,6.80836 5.04089,6.80257 5.01899,6.76117 5.00259,6.73047 4.84308,6.52867 4.70657,6.36587 4.65347,6.30247 4.60997,6.24051 4.60997,6.22811 c 0,-0.0126 0.1119,-0.13783 0.25349,-0.28371 0.13942,-0.14363 0.25349,-0.26871 0.25349,-0.27796 0,-0.0175 -0.092,-0.0292 -0.20306,-0.0292 z M 2.788,5.6383 c -0.029,2.1e-4 -0.0575,0.002 -0.082,0.005 l -0.0804,0.01 -0.004,0.0586 C 2.6166,5.7874 2.6409,5.92981 2.72,6.29146 2.7551,6.45205 2.7804,6.59254 2.7761,6.60368 2.7691,6.62138 2.7408,6.62388 2.54845,6.62378 2.42752,6.62369 2.31654,6.62078 2.30179,6.61678 2.28489,6.61178 2.26579,6.58828 2.25019,6.55188 2.21309,6.46568 2.11765,6.13989 2.05692,5.89231 2.02742,5.77197 1.99962,5.66765 1.99522,5.66048 c -0.005,-0.008 -0.0648,-0.013 -0.15335,-0.013 H 1.69659 l 0.009,0.0834 c 0.0199,0.18158 0.20618,0.74173 0.3254,0.97848 0.0525,0.10425 0.0346,0.10007 0.4285,0.10025 0.16045,7e-5 0.35941,0.004 0.44211,0.008 l 0.15037,0.008 0.0258,0.0877 c 0.0142,0.0483 0.0338,0.10029 0.0435,0.11559 0.0165,0.0258 0.0267,0.0278 0.14112,0.0278 H 3.38576 V 7.0042 c 0,-0.0834 -0.0488,-0.35979 -0.0653,-0.37032 -0.008,-0.005 -0.0438,-0.01 -0.0789,-0.01 C 3.15726,6.62363 3.14206,6.61688 3.12711,6.56998 3.10781,6.51018 3.05761,6.22593 3.01543,5.93735 2.99453,5.79454 2.97513,5.67124 2.97223,5.66336 2.96723,5.64856 2.87483,5.63806 2.78775,5.63866 Z m 3.8573,0.003 C 6.6179,5.64155 6.5906,5.6433 6.5703,5.6453 6.4862,5.6543 6.5272,5.6106 6.25644,5.97931 6.13441,6.1455 6.10496,6.17374 6.09037,6.13855 6.08637,6.13055 6.05577,6.05495 6.02127,5.97176 5.98677,5.88856 5.93897,5.78139 5.91493,5.73372 L 5.87133,5.64702 H 5.69179 c -0.21511,0 -0.21667,10e-4 -0.14879,0.12202 0.13767,0.24489 0.31627,0.64945 0.31627,0.71637 0,0.0723 -0.10698,0.15048 -0.20631,0.15074 -0.0511,1.3e-4 -0.0872,0.0225 -0.10129,0.0629 -0.0159,0.0457 -0.0182,0.10178 -0.005,0.11582 0.005,0.005 0.0599,0.007 0.12165,0.004 0.24124,-0.0123 0.34257,-0.0996 0.8215,-0.708 0.22693,-0.28829 0.30883,-0.40475 0.30883,-0.43916 0,-0.0169 -0.0152,-0.0224 -0.0773,-0.0277 -0.0212,-0.002 -0.0489,-0.003 -0.0763,-0.002 z" />
</svg>
